<mxfile host="app.diagrams.net" agent="Mozilla/5.0 (Windows NT 10.0; Win64; x64) AppleWebKit/537.36 (KHTML, like Gecko) Chrome/136.0.0.0 Safari/537.36" version="27.0.6" pages="3">
  <diagram name="Структурная" id="-SBNnLLu8-0Lo0ELuUeh">
    <mxGraphModel dx="1426" dy="761" grid="1" gridSize="10" guides="1" tooltips="1" connect="1" arrows="1" fold="1" page="1" pageScale="1" pageWidth="827" pageHeight="1169" math="0" shadow="0">
      <root>
        <mxCell id="0" />
        <mxCell id="1" parent="0" />
        <mxCell id="tQ9K-Tier89EgOZWghTz-3" value="" style="edgeStyle=orthogonalEdgeStyle;rounded=0;orthogonalLoop=1;jettySize=auto;html=1;endArrow=none;startFill=0;" parent="1" source="tQ9K-Tier89EgOZWghTz-1" target="tQ9K-Tier89EgOZWghTz-2" edge="1">
          <mxGeometry relative="1" as="geometry" />
        </mxCell>
        <mxCell id="tQ9K-Tier89EgOZWghTz-1" value="Login" style="rounded=0;whiteSpace=wrap;html=1;" parent="1" vertex="1">
          <mxGeometry x="160" y="230" width="120" height="60" as="geometry" />
        </mxCell>
        <mxCell id="tQ9K-Tier89EgOZWghTz-5" value="" style="edgeStyle=orthogonalEdgeStyle;rounded=0;orthogonalLoop=1;jettySize=auto;html=1;endArrow=none;startFill=0;" parent="1" source="tQ9K-Tier89EgOZWghTz-2" target="tQ9K-Tier89EgOZWghTz-4" edge="1">
          <mxGeometry relative="1" as="geometry" />
        </mxCell>
        <mxCell id="tQ9K-Tier89EgOZWghTz-2" value="Вход в аккаунт" style="whiteSpace=wrap;html=1;rounded=0;" parent="1" vertex="1">
          <mxGeometry x="360" y="230" width="120" height="60" as="geometry" />
        </mxCell>
        <mxCell id="tQ9K-Tier89EgOZWghTz-9" value="" style="edgeStyle=orthogonalEdgeStyle;rounded=0;orthogonalLoop=1;jettySize=auto;html=1;endArrow=none;startFill=0;" parent="1" source="tQ9K-Tier89EgOZWghTz-4" target="tQ9K-Tier89EgOZWghTz-8" edge="1">
          <mxGeometry relative="1" as="geometry" />
        </mxCell>
        <mxCell id="tQ9K-Tier89EgOZWghTz-4" value="Сервис авторизации" style="whiteSpace=wrap;html=1;rounded=0;" parent="1" vertex="1">
          <mxGeometry x="560" y="230" width="120" height="60" as="geometry" />
        </mxCell>
        <mxCell id="tQ9K-Tier89EgOZWghTz-8" value="API авторизации" style="shape=process;whiteSpace=wrap;html=1;backgroundOutline=1;rounded=0;" parent="1" vertex="1">
          <mxGeometry x="760" y="230" width="120" height="60" as="geometry" />
        </mxCell>
        <mxCell id="tQ9K-Tier89EgOZWghTz-12" value="" style="edgeStyle=orthogonalEdgeStyle;rounded=0;orthogonalLoop=1;jettySize=auto;html=1;endArrow=none;startFill=0;" parent="1" source="tQ9K-Tier89EgOZWghTz-10" target="tQ9K-Tier89EgOZWghTz-11" edge="1">
          <mxGeometry relative="1" as="geometry" />
        </mxCell>
        <mxCell id="tQ9K-Tier89EgOZWghTz-15" style="edgeStyle=orthogonalEdgeStyle;rounded=0;orthogonalLoop=1;jettySize=auto;html=1;entryX=0;entryY=0.5;entryDx=0;entryDy=0;endArrow=none;startFill=0;" parent="1" source="tQ9K-Tier89EgOZWghTz-10" target="tQ9K-Tier89EgOZWghTz-14" edge="1">
          <mxGeometry relative="1" as="geometry" />
        </mxCell>
        <mxCell id="tQ9K-Tier89EgOZWghTz-10" value="Account" style="rounded=0;whiteSpace=wrap;html=1;" parent="1" vertex="1">
          <mxGeometry x="160" y="310" width="120" height="60" as="geometry" />
        </mxCell>
        <mxCell id="tQ9K-Tier89EgOZWghTz-16" style="edgeStyle=orthogonalEdgeStyle;rounded=0;orthogonalLoop=1;jettySize=auto;html=1;entryX=0.5;entryY=1;entryDx=0;entryDy=0;endArrow=none;startFill=0;" parent="1" source="tQ9K-Tier89EgOZWghTz-11" target="tQ9K-Tier89EgOZWghTz-4" edge="1">
          <mxGeometry relative="1" as="geometry" />
        </mxCell>
        <mxCell id="tQ9K-Tier89EgOZWghTz-11" value="Создание комнаты" style="whiteSpace=wrap;html=1;rounded=0;" parent="1" vertex="1">
          <mxGeometry x="360" y="310" width="120" height="60" as="geometry" />
        </mxCell>
        <mxCell id="tQ9K-Tier89EgOZWghTz-17" style="edgeStyle=orthogonalEdgeStyle;rounded=0;orthogonalLoop=1;jettySize=auto;html=1;endArrow=none;startFill=0;" parent="1" source="tQ9K-Tier89EgOZWghTz-14" edge="1">
          <mxGeometry relative="1" as="geometry">
            <mxPoint x="620" y="340" as="targetPoint" />
          </mxGeometry>
        </mxCell>
        <mxCell id="tQ9K-Tier89EgOZWghTz-14" value="Удаление комнаты" style="whiteSpace=wrap;html=1;rounded=0;" parent="1" vertex="1">
          <mxGeometry x="360" y="400" width="120" height="60" as="geometry" />
        </mxCell>
        <mxCell id="tQ9K-Tier89EgOZWghTz-41" style="edgeStyle=orthogonalEdgeStyle;rounded=0;orthogonalLoop=1;jettySize=auto;html=1;entryX=0;entryY=0.5;entryDx=0;entryDy=0;endArrow=none;startFill=0;" parent="1" source="tQ9K-Tier89EgOZWghTz-18" target="tQ9K-Tier89EgOZWghTz-39" edge="1">
          <mxGeometry relative="1" as="geometry" />
        </mxCell>
        <mxCell id="tQ9K-Tier89EgOZWghTz-43" style="edgeStyle=orthogonalEdgeStyle;rounded=0;orthogonalLoop=1;jettySize=auto;html=1;entryX=0;entryY=0.5;entryDx=0;entryDy=0;endArrow=none;startFill=0;" parent="1" source="tQ9K-Tier89EgOZWghTz-18" target="tQ9K-Tier89EgOZWghTz-40" edge="1">
          <mxGeometry relative="1" as="geometry" />
        </mxCell>
        <mxCell id="tQ9K-Tier89EgOZWghTz-18" value="Canvas" style="rounded=0;whiteSpace=wrap;html=1;" parent="1" vertex="1">
          <mxGeometry x="160" y="500" width="120" height="60" as="geometry" />
        </mxCell>
        <mxCell id="tQ9K-Tier89EgOZWghTz-48" style="edgeStyle=orthogonalEdgeStyle;rounded=0;orthogonalLoop=1;jettySize=auto;html=1;entryX=0.5;entryY=1;entryDx=0;entryDy=0;endArrow=none;startFill=0;" parent="1" source="tQ9K-Tier89EgOZWghTz-19" target="tQ9K-Tier89EgOZWghTz-29" edge="1">
          <mxGeometry relative="1" as="geometry">
            <Array as="points">
              <mxPoint x="620" y="710" />
            </Array>
          </mxGeometry>
        </mxCell>
        <mxCell id="tQ9K-Tier89EgOZWghTz-19" value="Перо" style="whiteSpace=wrap;html=1;rounded=0;" parent="1" vertex="1">
          <mxGeometry x="440" y="680" width="120" height="60" as="geometry" />
        </mxCell>
        <mxCell id="tQ9K-Tier89EgOZWghTz-49" style="edgeStyle=orthogonalEdgeStyle;rounded=0;orthogonalLoop=1;jettySize=auto;html=1;endArrow=none;startFill=0;" parent="1" source="tQ9K-Tier89EgOZWghTz-21" edge="1">
          <mxGeometry relative="1" as="geometry">
            <mxPoint x="620" y="710" as="targetPoint" />
          </mxGeometry>
        </mxCell>
        <mxCell id="tQ9K-Tier89EgOZWghTz-21" value="Рука" style="whiteSpace=wrap;html=1;rounded=0;" parent="1" vertex="1">
          <mxGeometry x="440" y="760" width="120" height="60" as="geometry" />
        </mxCell>
        <mxCell id="tQ9K-Tier89EgOZWghTz-50" style="edgeStyle=orthogonalEdgeStyle;rounded=0;orthogonalLoop=1;jettySize=auto;html=1;endArrow=none;startFill=0;" parent="1" source="tQ9K-Tier89EgOZWghTz-22" edge="1">
          <mxGeometry relative="1" as="geometry">
            <mxPoint x="620" y="790" as="targetPoint" />
          </mxGeometry>
        </mxCell>
        <mxCell id="tQ9K-Tier89EgOZWghTz-22" value="Табличка" style="whiteSpace=wrap;html=1;rounded=0;" parent="1" vertex="1">
          <mxGeometry x="440" y="840" width="120" height="60" as="geometry" />
        </mxCell>
        <mxCell id="tQ9K-Tier89EgOZWghTz-51" style="edgeStyle=orthogonalEdgeStyle;rounded=0;orthogonalLoop=1;jettySize=auto;html=1;endArrow=none;startFill=0;" parent="1" source="tQ9K-Tier89EgOZWghTz-23" edge="1">
          <mxGeometry relative="1" as="geometry">
            <mxPoint x="620" y="870" as="targetPoint" />
          </mxGeometry>
        </mxCell>
        <mxCell id="tQ9K-Tier89EgOZWghTz-23" value="Картинка" style="whiteSpace=wrap;html=1;rounded=0;" parent="1" vertex="1">
          <mxGeometry x="440" y="920" width="120" height="60" as="geometry" />
        </mxCell>
        <mxCell id="tQ9K-Tier89EgOZWghTz-52" style="edgeStyle=orthogonalEdgeStyle;rounded=0;orthogonalLoop=1;jettySize=auto;html=1;endArrow=none;startFill=0;" parent="1" source="tQ9K-Tier89EgOZWghTz-27" edge="1">
          <mxGeometry relative="1" as="geometry">
            <mxPoint x="620" y="400" as="targetPoint" />
          </mxGeometry>
        </mxCell>
        <mxCell id="tQ9K-Tier89EgOZWghTz-27" value="&quot;Тостер&quot;" style="rounded=0;whiteSpace=wrap;html=1;" parent="1" vertex="1">
          <mxGeometry x="640" y="370" width="120" height="60" as="geometry" />
        </mxCell>
        <mxCell id="tQ9K-Tier89EgOZWghTz-32" value="" style="edgeStyle=orthogonalEdgeStyle;rounded=0;orthogonalLoop=1;jettySize=auto;html=1;endArrow=none;startFill=0;" parent="1" source="tQ9K-Tier89EgOZWghTz-29" target="tQ9K-Tier89EgOZWghTz-31" edge="1">
          <mxGeometry relative="1" as="geometry" />
        </mxCell>
        <mxCell id="tQ9K-Tier89EgOZWghTz-33" style="edgeStyle=orthogonalEdgeStyle;rounded=0;orthogonalLoop=1;jettySize=auto;html=1;endArrow=none;startFill=0;" parent="1" source="tQ9K-Tier89EgOZWghTz-29" edge="1">
          <mxGeometry relative="1" as="geometry">
            <mxPoint x="620" y="430" as="targetPoint" />
          </mxGeometry>
        </mxCell>
        <mxCell id="tQ9K-Tier89EgOZWghTz-29" value="Сервис синхронизации" style="whiteSpace=wrap;html=1;rounded=0;" parent="1" vertex="1">
          <mxGeometry x="560" y="500" width="120" height="60" as="geometry" />
        </mxCell>
        <mxCell id="tQ9K-Tier89EgOZWghTz-31" value="WebSocket сервер" style="shape=process;whiteSpace=wrap;html=1;backgroundOutline=1;rounded=0;" parent="1" vertex="1">
          <mxGeometry x="760" y="500" width="120" height="60" as="geometry" />
        </mxCell>
        <mxCell id="tQ9K-Tier89EgOZWghTz-42" style="edgeStyle=orthogonalEdgeStyle;rounded=0;orthogonalLoop=1;jettySize=auto;html=1;endArrow=none;startFill=0;" parent="1" source="tQ9K-Tier89EgOZWghTz-39" target="tQ9K-Tier89EgOZWghTz-29" edge="1">
          <mxGeometry relative="1" as="geometry" />
        </mxCell>
        <mxCell id="tQ9K-Tier89EgOZWghTz-39" value="Панель свойств" style="rounded=0;whiteSpace=wrap;html=1;" parent="1" vertex="1">
          <mxGeometry x="360" y="500" width="120" height="60" as="geometry" />
        </mxCell>
        <mxCell id="tQ9K-Tier89EgOZWghTz-44" style="edgeStyle=orthogonalEdgeStyle;rounded=0;orthogonalLoop=1;jettySize=auto;html=1;entryX=0;entryY=0.5;entryDx=0;entryDy=0;endArrow=none;startFill=0;" parent="1" source="tQ9K-Tier89EgOZWghTz-40" target="tQ9K-Tier89EgOZWghTz-19" edge="1">
          <mxGeometry relative="1" as="geometry" />
        </mxCell>
        <mxCell id="tQ9K-Tier89EgOZWghTz-45" style="edgeStyle=orthogonalEdgeStyle;rounded=0;orthogonalLoop=1;jettySize=auto;html=1;entryX=0;entryY=0.5;entryDx=0;entryDy=0;endArrow=none;startFill=0;" parent="1" source="tQ9K-Tier89EgOZWghTz-40" target="tQ9K-Tier89EgOZWghTz-21" edge="1">
          <mxGeometry relative="1" as="geometry" />
        </mxCell>
        <mxCell id="tQ9K-Tier89EgOZWghTz-46" style="edgeStyle=orthogonalEdgeStyle;rounded=0;orthogonalLoop=1;jettySize=auto;html=1;entryX=0;entryY=0.5;entryDx=0;entryDy=0;endArrow=none;startFill=0;" parent="1" source="tQ9K-Tier89EgOZWghTz-40" target="tQ9K-Tier89EgOZWghTz-22" edge="1">
          <mxGeometry relative="1" as="geometry" />
        </mxCell>
        <mxCell id="tQ9K-Tier89EgOZWghTz-47" style="edgeStyle=orthogonalEdgeStyle;rounded=0;orthogonalLoop=1;jettySize=auto;html=1;entryX=0;entryY=0.5;entryDx=0;entryDy=0;endArrow=none;startFill=0;" parent="1" source="tQ9K-Tier89EgOZWghTz-40" target="tQ9K-Tier89EgOZWghTz-23" edge="1">
          <mxGeometry relative="1" as="geometry" />
        </mxCell>
        <mxCell id="tQ9K-Tier89EgOZWghTz-40" value="Панель инструментов" style="rounded=0;whiteSpace=wrap;html=1;" parent="1" vertex="1">
          <mxGeometry x="360" y="585" width="120" height="60" as="geometry" />
        </mxCell>
      </root>
    </mxGraphModel>
  </diagram>
  <diagram id="bBel5NqHhYj_EWYxXUVs" name="Login">
    <mxGraphModel dx="777" dy="1282" grid="1" gridSize="10" guides="1" tooltips="1" connect="1" arrows="1" fold="1" page="1" pageScale="1" pageWidth="827" pageHeight="1169" math="0" shadow="0">
      <root>
        <mxCell id="0" />
        <mxCell id="1" parent="0" />
        <mxCell id="rQonNs_o82DU0D9IM-Vh-4" value="" style="edgeStyle=orthogonalEdgeStyle;rounded=0;orthogonalLoop=1;jettySize=auto;html=1;" parent="1" source="rQonNs_o82DU0D9IM-Vh-1" target="rQonNs_o82DU0D9IM-Vh-3" edge="1">
          <mxGeometry relative="1" as="geometry" />
        </mxCell>
        <mxCell id="rQonNs_o82DU0D9IM-Vh-1" value="Начало" style="ellipse;whiteSpace=wrap;html=1;" parent="1" vertex="1">
          <mxGeometry x="130" y="120" width="80" height="40" as="geometry" />
        </mxCell>
        <mxCell id="rQonNs_o82DU0D9IM-Vh-2" value="Login" style="text;html=1;align=center;verticalAlign=middle;whiteSpace=wrap;rounded=0;" parent="1" vertex="1">
          <mxGeometry x="20" y="10" width="60" height="30" as="geometry" />
        </mxCell>
        <mxCell id="rQonNs_o82DU0D9IM-Vh-6" value="" style="edgeStyle=orthogonalEdgeStyle;rounded=0;orthogonalLoop=1;jettySize=auto;html=1;" parent="1" source="rQonNs_o82DU0D9IM-Vh-3" target="rQonNs_o82DU0D9IM-Vh-5" edge="1">
          <mxGeometry relative="1" as="geometry" />
        </mxCell>
        <mxCell id="rQonNs_o82DU0D9IM-Vh-3" value="Инициализация react-router" style="whiteSpace=wrap;html=1;" parent="1" vertex="1">
          <mxGeometry x="90" y="200" width="160" height="40" as="geometry" />
        </mxCell>
        <mxCell id="rQonNs_o82DU0D9IM-Vh-10" value="" style="edgeStyle=orthogonalEdgeStyle;rounded=0;orthogonalLoop=1;jettySize=auto;html=1;" parent="1" source="rQonNs_o82DU0D9IM-Vh-5" target="rQonNs_o82DU0D9IM-Vh-9" edge="1">
          <mxGeometry relative="1" as="geometry" />
        </mxCell>
        <mxCell id="rQonNs_o82DU0D9IM-Vh-5" value="Инициализация LoginProvider" style="whiteSpace=wrap;html=1;" parent="1" vertex="1">
          <mxGeometry x="90" y="270" width="160" height="40" as="geometry" />
        </mxCell>
        <mxCell id="rQonNs_o82DU0D9IM-Vh-12" style="edgeStyle=orthogonalEdgeStyle;rounded=0;orthogonalLoop=1;jettySize=auto;html=1;entryX=0.5;entryY=0;entryDx=0;entryDy=0;" parent="1" source="rQonNs_o82DU0D9IM-Vh-9" target="rQonNs_o82DU0D9IM-Vh-11" edge="1">
          <mxGeometry relative="1" as="geometry" />
        </mxCell>
        <mxCell id="rQonNs_o82DU0D9IM-Vh-9" value="Вывести страницу" style="shape=parallelogram;perimeter=parallelogramPerimeter;whiteSpace=wrap;html=1;fixedSize=1;" parent="1" vertex="1">
          <mxGeometry x="90" y="340" width="160" height="50" as="geometry" />
        </mxCell>
        <mxCell id="rQonNs_o82DU0D9IM-Vh-11" value="Конец" style="ellipse;whiteSpace=wrap;html=1;" parent="1" vertex="1">
          <mxGeometry x="110" y="440" width="120" height="40" as="geometry" />
        </mxCell>
        <mxCell id="rQonNs_o82DU0D9IM-Vh-15" value="" style="edgeStyle=orthogonalEdgeStyle;rounded=0;orthogonalLoop=1;jettySize=auto;html=1;" parent="1" source="rQonNs_o82DU0D9IM-Vh-13" target="rQonNs_o82DU0D9IM-Vh-14" edge="1">
          <mxGeometry relative="1" as="geometry" />
        </mxCell>
        <mxCell id="rQonNs_o82DU0D9IM-Vh-13" value="onLoginClick (e)" style="shape=process;whiteSpace=wrap;html=1;backgroundOutline=1;" parent="1" vertex="1">
          <mxGeometry x="370" y="120" width="120" height="40" as="geometry" />
        </mxCell>
        <mxCell id="rQonNs_o82DU0D9IM-Vh-22" value="" style="edgeStyle=orthogonalEdgeStyle;rounded=0;orthogonalLoop=1;jettySize=auto;html=1;" parent="1" source="rQonNs_o82DU0D9IM-Vh-14" target="rQonNs_o82DU0D9IM-Vh-21" edge="1">
          <mxGeometry relative="1" as="geometry" />
        </mxCell>
        <mxCell id="rQonNs_o82DU0D9IM-Vh-14" value="Получить данные формы" style="whiteSpace=wrap;html=1;" parent="1" vertex="1">
          <mxGeometry x="370" y="200" width="120" height="40" as="geometry" />
        </mxCell>
        <mxCell id="rQonNs_o82DU0D9IM-Vh-16" value="" style="endArrow=none;dashed=1;html=1;dashPattern=1 3;strokeWidth=2;rounded=0;" parent="1" edge="1">
          <mxGeometry width="50" height="50" relative="1" as="geometry">
            <mxPoint x="430" y="180" as="sourcePoint" />
            <mxPoint x="530" y="180" as="targetPoint" />
          </mxGeometry>
        </mxCell>
        <mxCell id="rQonNs_o82DU0D9IM-Vh-17" value="" style="endArrow=none;html=1;rounded=0;" parent="1" edge="1">
          <mxGeometry width="50" height="50" relative="1" as="geometry">
            <mxPoint x="530" y="210" as="sourcePoint" />
            <mxPoint x="530" y="150" as="targetPoint" />
          </mxGeometry>
        </mxCell>
        <mxCell id="rQonNs_o82DU0D9IM-Vh-18" value="" style="endArrow=none;html=1;rounded=0;" parent="1" edge="1">
          <mxGeometry width="50" height="50" relative="1" as="geometry">
            <mxPoint x="530" y="150" as="sourcePoint" />
            <mxPoint x="550" y="150" as="targetPoint" />
          </mxGeometry>
        </mxCell>
        <mxCell id="rQonNs_o82DU0D9IM-Vh-19" value="" style="endArrow=none;html=1;rounded=0;" parent="1" edge="1">
          <mxGeometry width="50" height="50" relative="1" as="geometry">
            <mxPoint x="530" y="209.86" as="sourcePoint" />
            <mxPoint x="550" y="209.86" as="targetPoint" />
          </mxGeometry>
        </mxCell>
        <mxCell id="rQonNs_o82DU0D9IM-Vh-20" value="Анонимная функция, вызываемая при нажатии на кнопку &quot;Войти&quot;" style="text;html=1;align=center;verticalAlign=middle;whiteSpace=wrap;rounded=0;" parent="1" vertex="1">
          <mxGeometry x="540" y="160" width="150" height="40" as="geometry" />
        </mxCell>
        <mxCell id="rQonNs_o82DU0D9IM-Vh-24" value="" style="edgeStyle=orthogonalEdgeStyle;rounded=0;orthogonalLoop=1;jettySize=auto;html=1;" parent="1" source="rQonNs_o82DU0D9IM-Vh-21" target="rQonNs_o82DU0D9IM-Vh-23" edge="1">
          <mxGeometry relative="1" as="geometry" />
        </mxCell>
        <mxCell id="rQonNs_o82DU0D9IM-Vh-21" value="Авторизация через LoginProvider" style="whiteSpace=wrap;html=1;" parent="1" vertex="1">
          <mxGeometry x="370" y="280" width="120" height="40" as="geometry" />
        </mxCell>
        <mxCell id="rQonNs_o82DU0D9IM-Vh-23" value="Успешно?" style="rhombus;whiteSpace=wrap;html=1;" parent="1" vertex="1">
          <mxGeometry x="370" y="370" width="120" height="60" as="geometry" />
        </mxCell>
        <mxCell id="rQonNs_o82DU0D9IM-Vh-25" value="" style="endArrow=classic;html=1;rounded=0;" parent="1" edge="1">
          <mxGeometry width="50" height="50" relative="1" as="geometry">
            <mxPoint x="490" y="400" as="sourcePoint" />
            <mxPoint x="530" y="440" as="targetPoint" />
            <Array as="points">
              <mxPoint x="530" y="400" />
            </Array>
          </mxGeometry>
        </mxCell>
        <mxCell id="rQonNs_o82DU0D9IM-Vh-26" value="" style="endArrow=classic;html=1;rounded=0;exitX=0;exitY=0.5;exitDx=0;exitDy=0;" parent="1" source="rQonNs_o82DU0D9IM-Vh-23" edge="1">
          <mxGeometry width="50" height="50" relative="1" as="geometry">
            <mxPoint x="290" y="400" as="sourcePoint" />
            <mxPoint x="330" y="440" as="targetPoint" />
            <Array as="points">
              <mxPoint x="330" y="400" />
            </Array>
          </mxGeometry>
        </mxCell>
        <mxCell id="rQonNs_o82DU0D9IM-Vh-27" value="Нет" style="text;html=1;align=center;verticalAlign=middle;whiteSpace=wrap;rounded=0;" parent="1" vertex="1">
          <mxGeometry x="320" y="370" width="60" height="30" as="geometry" />
        </mxCell>
        <mxCell id="rQonNs_o82DU0D9IM-Vh-28" value="Да" style="text;html=1;align=center;verticalAlign=middle;whiteSpace=wrap;rounded=0;" parent="1" vertex="1">
          <mxGeometry x="480" y="370" width="60" height="30" as="geometry" />
        </mxCell>
        <mxCell id="rQonNs_o82DU0D9IM-Vh-37" style="edgeStyle=orthogonalEdgeStyle;rounded=0;orthogonalLoop=1;jettySize=auto;html=1;" parent="1" source="rQonNs_o82DU0D9IM-Vh-29" edge="1">
          <mxGeometry relative="1" as="geometry">
            <mxPoint x="430" y="600" as="targetPoint" />
            <Array as="points">
              <mxPoint x="330" y="580" />
              <mxPoint x="430" y="580" />
            </Array>
          </mxGeometry>
        </mxCell>
        <mxCell id="rQonNs_o82DU0D9IM-Vh-29" value="Отобразить тост с ошибкой" style="rounded=0;whiteSpace=wrap;html=1;" parent="1" vertex="1">
          <mxGeometry x="280" y="440" width="100" height="40" as="geometry" />
        </mxCell>
        <mxCell id="rQonNs_o82DU0D9IM-Vh-33" value="" style="edgeStyle=orthogonalEdgeStyle;rounded=0;orthogonalLoop=1;jettySize=auto;html=1;" parent="1" source="rQonNs_o82DU0D9IM-Vh-30" target="rQonNs_o82DU0D9IM-Vh-32" edge="1">
          <mxGeometry relative="1" as="geometry" />
        </mxCell>
        <mxCell id="rQonNs_o82DU0D9IM-Vh-30" value="Отобразить тост с успехом" style="rounded=0;whiteSpace=wrap;html=1;" parent="1" vertex="1">
          <mxGeometry x="480" y="440" width="100" height="40" as="geometry" />
        </mxCell>
        <mxCell id="rQonNs_o82DU0D9IM-Vh-36" style="edgeStyle=orthogonalEdgeStyle;rounded=0;orthogonalLoop=1;jettySize=auto;html=1;entryX=0.5;entryY=0;entryDx=0;entryDy=0;" parent="1" source="rQonNs_o82DU0D9IM-Vh-32" target="rQonNs_o82DU0D9IM-Vh-35" edge="1">
          <mxGeometry relative="1" as="geometry" />
        </mxCell>
        <mxCell id="rQonNs_o82DU0D9IM-Vh-32" value="Перейти на страницу личного кабинета" style="whiteSpace=wrap;html=1;rounded=0;" parent="1" vertex="1">
          <mxGeometry x="450" y="520" width="160" height="40" as="geometry" />
        </mxCell>
        <mxCell id="rQonNs_o82DU0D9IM-Vh-35" value="Конец" style="ellipse;whiteSpace=wrap;html=1;" parent="1" vertex="1">
          <mxGeometry x="370" y="600" width="120" height="40" as="geometry" />
        </mxCell>
      </root>
    </mxGraphModel>
  </diagram>
  <diagram id="8liLHcVPin6NwZSS2f03" name="Account">
    <mxGraphModel dx="1665" dy="813" grid="0" gridSize="10" guides="1" tooltips="1" connect="1" arrows="1" fold="1" page="0" pageScale="1" pageWidth="827" pageHeight="1169" math="0" shadow="0">
      <root>
        <mxCell id="0" />
        <mxCell id="1" parent="0" />
        <mxCell id="MDZAVOw1X1POU5d0Ku6z-1" value="" style="edgeStyle=orthogonalEdgeStyle;rounded=0;orthogonalLoop=1;jettySize=auto;html=1;" edge="1" parent="1" source="MDZAVOw1X1POU5d0Ku6z-2" target="MDZAVOw1X1POU5d0Ku6z-5">
          <mxGeometry relative="1" as="geometry" />
        </mxCell>
        <mxCell id="MDZAVOw1X1POU5d0Ku6z-2" value="Начало" style="ellipse;whiteSpace=wrap;html=1;" vertex="1" parent="1">
          <mxGeometry x="130" y="120" width="80" height="40" as="geometry" />
        </mxCell>
        <mxCell id="MDZAVOw1X1POU5d0Ku6z-3" value="Login" style="text;html=1;align=center;verticalAlign=middle;whiteSpace=wrap;rounded=0;" vertex="1" parent="1">
          <mxGeometry x="20" y="10" width="60" height="30" as="geometry" />
        </mxCell>
        <mxCell id="MDZAVOw1X1POU5d0Ku6z-4" value="" style="edgeStyle=orthogonalEdgeStyle;rounded=0;orthogonalLoop=1;jettySize=auto;html=1;" edge="1" parent="1" source="MDZAVOw1X1POU5d0Ku6z-5" target="MDZAVOw1X1POU5d0Ku6z-7">
          <mxGeometry relative="1" as="geometry" />
        </mxCell>
        <mxCell id="MDZAVOw1X1POU5d0Ku6z-5" value="Инициализация react-router" style="whiteSpace=wrap;html=1;" vertex="1" parent="1">
          <mxGeometry x="90" y="200" width="160" height="40" as="geometry" />
        </mxCell>
        <mxCell id="MDZAVOw1X1POU5d0Ku6z-6" value="" style="edgeStyle=orthogonalEdgeStyle;rounded=0;orthogonalLoop=1;jettySize=auto;html=1;" edge="1" parent="1" source="MDZAVOw1X1POU5d0Ku6z-7" target="MDZAVOw1X1POU5d0Ku6z-9">
          <mxGeometry relative="1" as="geometry" />
        </mxCell>
        <mxCell id="MDZAVOw1X1POU5d0Ku6z-7" value="Инициализация LoginProvider" style="whiteSpace=wrap;html=1;" vertex="1" parent="1">
          <mxGeometry x="90" y="270" width="160" height="40" as="geometry" />
        </mxCell>
        <mxCell id="MDZAVOw1X1POU5d0Ku6z-8" style="edgeStyle=orthogonalEdgeStyle;rounded=0;orthogonalLoop=1;jettySize=auto;html=1;entryX=0.5;entryY=0;entryDx=0;entryDy=0;" edge="1" parent="1" source="MDZAVOw1X1POU5d0Ku6z-9" target="MDZAVOw1X1POU5d0Ku6z-10">
          <mxGeometry relative="1" as="geometry" />
        </mxCell>
        <mxCell id="MDZAVOw1X1POU5d0Ku6z-9" value="Вывести страницу" style="shape=parallelogram;perimeter=parallelogramPerimeter;whiteSpace=wrap;html=1;fixedSize=1;" vertex="1" parent="1">
          <mxGeometry x="90" y="340" width="160" height="50" as="geometry" />
        </mxCell>
        <mxCell id="MDZAVOw1X1POU5d0Ku6z-10" value="Конец" style="ellipse;whiteSpace=wrap;html=1;" vertex="1" parent="1">
          <mxGeometry x="110" y="440" width="120" height="40" as="geometry" />
        </mxCell>
        <mxCell id="MDZAVOw1X1POU5d0Ku6z-11" value="" style="edgeStyle=orthogonalEdgeStyle;rounded=0;orthogonalLoop=1;jettySize=auto;html=1;" edge="1" parent="1" source="MDZAVOw1X1POU5d0Ku6z-12" target="MDZAVOw1X1POU5d0Ku6z-14">
          <mxGeometry relative="1" as="geometry" />
        </mxCell>
        <mxCell id="MDZAVOw1X1POU5d0Ku6z-12" value="onLoginClick (e)" style="shape=process;whiteSpace=wrap;html=1;backgroundOutline=1;" vertex="1" parent="1">
          <mxGeometry x="370" y="120" width="120" height="40" as="geometry" />
        </mxCell>
        <mxCell id="MDZAVOw1X1POU5d0Ku6z-13" value="" style="edgeStyle=orthogonalEdgeStyle;rounded=0;orthogonalLoop=1;jettySize=auto;html=1;" edge="1" parent="1" source="MDZAVOw1X1POU5d0Ku6z-14" target="MDZAVOw1X1POU5d0Ku6z-21">
          <mxGeometry relative="1" as="geometry" />
        </mxCell>
        <mxCell id="MDZAVOw1X1POU5d0Ku6z-14" value="Получить данные формы" style="whiteSpace=wrap;html=1;" vertex="1" parent="1">
          <mxGeometry x="370" y="200" width="120" height="40" as="geometry" />
        </mxCell>
        <mxCell id="MDZAVOw1X1POU5d0Ku6z-15" value="" style="endArrow=none;dashed=1;html=1;dashPattern=1 3;strokeWidth=2;rounded=0;" edge="1" parent="1">
          <mxGeometry width="50" height="50" relative="1" as="geometry">
            <mxPoint x="430" y="180" as="sourcePoint" />
            <mxPoint x="530" y="180" as="targetPoint" />
          </mxGeometry>
        </mxCell>
        <mxCell id="MDZAVOw1X1POU5d0Ku6z-16" value="" style="endArrow=none;html=1;rounded=0;" edge="1" parent="1">
          <mxGeometry width="50" height="50" relative="1" as="geometry">
            <mxPoint x="530" y="210" as="sourcePoint" />
            <mxPoint x="530" y="150" as="targetPoint" />
          </mxGeometry>
        </mxCell>
        <mxCell id="MDZAVOw1X1POU5d0Ku6z-17" value="" style="endArrow=none;html=1;rounded=0;" edge="1" parent="1">
          <mxGeometry width="50" height="50" relative="1" as="geometry">
            <mxPoint x="530" y="150" as="sourcePoint" />
            <mxPoint x="550" y="150" as="targetPoint" />
          </mxGeometry>
        </mxCell>
        <mxCell id="MDZAVOw1X1POU5d0Ku6z-18" value="" style="endArrow=none;html=1;rounded=0;" edge="1" parent="1">
          <mxGeometry width="50" height="50" relative="1" as="geometry">
            <mxPoint x="530" y="209.86" as="sourcePoint" />
            <mxPoint x="550" y="209.86" as="targetPoint" />
          </mxGeometry>
        </mxCell>
        <mxCell id="MDZAVOw1X1POU5d0Ku6z-19" value="Анонимная функция, вызываемая при нажатии на кнопку &quot;Войти&quot;" style="text;html=1;align=center;verticalAlign=middle;whiteSpace=wrap;rounded=0;" vertex="1" parent="1">
          <mxGeometry x="540" y="160" width="150" height="40" as="geometry" />
        </mxCell>
        <mxCell id="MDZAVOw1X1POU5d0Ku6z-20" value="" style="edgeStyle=orthogonalEdgeStyle;rounded=0;orthogonalLoop=1;jettySize=auto;html=1;" edge="1" parent="1" source="MDZAVOw1X1POU5d0Ku6z-21" target="MDZAVOw1X1POU5d0Ku6z-22">
          <mxGeometry relative="1" as="geometry" />
        </mxCell>
        <mxCell id="MDZAVOw1X1POU5d0Ku6z-21" value="Авторизация через LoginProvider" style="whiteSpace=wrap;html=1;" vertex="1" parent="1">
          <mxGeometry x="370" y="280" width="120" height="40" as="geometry" />
        </mxCell>
        <mxCell id="MDZAVOw1X1POU5d0Ku6z-22" value="Успешно?" style="rhombus;whiteSpace=wrap;html=1;" vertex="1" parent="1">
          <mxGeometry x="370" y="370" width="120" height="60" as="geometry" />
        </mxCell>
        <mxCell id="MDZAVOw1X1POU5d0Ku6z-23" value="" style="endArrow=classic;html=1;rounded=0;" edge="1" parent="1">
          <mxGeometry width="50" height="50" relative="1" as="geometry">
            <mxPoint x="490" y="400" as="sourcePoint" />
            <mxPoint x="530" y="440" as="targetPoint" />
            <Array as="points">
              <mxPoint x="530" y="400" />
            </Array>
          </mxGeometry>
        </mxCell>
        <mxCell id="MDZAVOw1X1POU5d0Ku6z-24" value="" style="endArrow=classic;html=1;rounded=0;exitX=0;exitY=0.5;exitDx=0;exitDy=0;" edge="1" parent="1" source="MDZAVOw1X1POU5d0Ku6z-22">
          <mxGeometry width="50" height="50" relative="1" as="geometry">
            <mxPoint x="290" y="400" as="sourcePoint" />
            <mxPoint x="330" y="440" as="targetPoint" />
            <Array as="points">
              <mxPoint x="330" y="400" />
            </Array>
          </mxGeometry>
        </mxCell>
        <mxCell id="MDZAVOw1X1POU5d0Ku6z-25" value="Нет" style="text;html=1;align=center;verticalAlign=middle;whiteSpace=wrap;rounded=0;" vertex="1" parent="1">
          <mxGeometry x="320" y="370" width="60" height="30" as="geometry" />
        </mxCell>
        <mxCell id="MDZAVOw1X1POU5d0Ku6z-26" value="Да" style="text;html=1;align=center;verticalAlign=middle;whiteSpace=wrap;rounded=0;" vertex="1" parent="1">
          <mxGeometry x="480" y="370" width="60" height="30" as="geometry" />
        </mxCell>
        <mxCell id="MDZAVOw1X1POU5d0Ku6z-27" style="edgeStyle=orthogonalEdgeStyle;rounded=0;orthogonalLoop=1;jettySize=auto;html=1;" edge="1" parent="1" source="MDZAVOw1X1POU5d0Ku6z-28">
          <mxGeometry relative="1" as="geometry">
            <mxPoint x="430" y="600" as="targetPoint" />
            <Array as="points">
              <mxPoint x="330" y="580" />
              <mxPoint x="430" y="580" />
            </Array>
          </mxGeometry>
        </mxCell>
        <mxCell id="MDZAVOw1X1POU5d0Ku6z-28" value="Отобразить тост с ошибкой" style="rounded=0;whiteSpace=wrap;html=1;" vertex="1" parent="1">
          <mxGeometry x="280" y="440" width="100" height="40" as="geometry" />
        </mxCell>
        <mxCell id="MDZAVOw1X1POU5d0Ku6z-29" value="" style="edgeStyle=orthogonalEdgeStyle;rounded=0;orthogonalLoop=1;jettySize=auto;html=1;" edge="1" parent="1" source="MDZAVOw1X1POU5d0Ku6z-30" target="MDZAVOw1X1POU5d0Ku6z-32">
          <mxGeometry relative="1" as="geometry" />
        </mxCell>
        <mxCell id="MDZAVOw1X1POU5d0Ku6z-30" value="Отобразить тост с успехом" style="rounded=0;whiteSpace=wrap;html=1;" vertex="1" parent="1">
          <mxGeometry x="480" y="440" width="100" height="40" as="geometry" />
        </mxCell>
        <mxCell id="MDZAVOw1X1POU5d0Ku6z-31" style="edgeStyle=orthogonalEdgeStyle;rounded=0;orthogonalLoop=1;jettySize=auto;html=1;entryX=0.5;entryY=0;entryDx=0;entryDy=0;" edge="1" parent="1" source="MDZAVOw1X1POU5d0Ku6z-32" target="MDZAVOw1X1POU5d0Ku6z-33">
          <mxGeometry relative="1" as="geometry" />
        </mxCell>
        <mxCell id="MDZAVOw1X1POU5d0Ku6z-32" value="Перейти на страницу личного кабинета" style="whiteSpace=wrap;html=1;rounded=0;" vertex="1" parent="1">
          <mxGeometry x="450" y="520" width="160" height="40" as="geometry" />
        </mxCell>
        <mxCell id="MDZAVOw1X1POU5d0Ku6z-33" value="Конец" style="ellipse;whiteSpace=wrap;html=1;" vertex="1" parent="1">
          <mxGeometry x="370" y="600" width="120" height="40" as="geometry" />
        </mxCell>
      </root>
    </mxGraphModel>
  </diagram>
</mxfile>
